<svg width="36" height="37" viewBox="0 0 36 37" fill="none" xmlns="http://www.w3.org/2000/svg">
<g id="Case Study" filter="url(#filter0_d_1305_482)">
<path d="M32.2 31H8.21764C6.56862 31 4.98714 30.4284 3.82111 29.4111C2.65507 28.3937 2 27.0138 2 25.575V4.65C2 3.41674 2.56149 2.234 3.56095 1.36195C4.56041 0.489909 5.91596 0 7.32941 0H32.2C32.6711 0 33.123 0.163303 33.4561 0.453984C33.7893 0.744666 33.9765 1.13891 33.9765 1.55V29.45C33.9765 29.8611 33.7893 30.2553 33.4561 30.546C33.123 30.8367 32.6711 31 32.2 31ZM30.4235 27.9V23.25H8.21764C7.51092 23.25 6.83314 23.495 6.33341 23.931C5.83368 24.367 5.55294 24.9584 5.55294 25.575C5.55294 26.1916 5.83368 26.783 6.33341 27.219C6.83314 27.655 7.51092 27.9 8.21764 27.9H30.4235Z" fill="#464A5D"/>
<path d="M30.4235 28.025H30.5485V27.9V23.25V23.125H30.4235H8.21764C7.48286 23.125 6.7753 23.3795 6.25123 23.8368C5.72662 24.2945 5.42794 24.9193 5.42794 25.575C5.42794 26.2307 5.72662 26.8555 6.25123 27.3132C6.7753 27.7705 7.48286 28.025 8.21764 28.025H30.4235ZM32.2 30.875H8.21764C6.59669 30.875 5.04498 30.313 3.90329 29.3169C2.76214 28.3212 2.125 26.9747 2.125 25.575V4.65C2.125 3.45582 2.66855 2.30648 3.64313 1.45614C4.61825 0.605335 5.94403 0.125 7.32941 0.125H32.2C32.6431 0.125 33.0651 0.278729 33.374 0.548172C33.6822 0.817143 33.8515 1.17799 33.8515 1.55V29.45C33.8515 29.822 33.6822 30.1829 33.374 30.4518C33.0651 30.7213 32.6431 30.875 32.2 30.875Z" stroke="#464A5D" stroke-width="0.25"/>
</g>
<defs>
<filter id="filter0_d_1305_482" x="0" y="0" width="35.9764" height="37" filterUnits="userSpaceOnUse" color-interpolation-filters="sRGB">
<feFlood flood-opacity="0" result="BackgroundImageFix"/>
<feColorMatrix in="SourceAlpha" type="matrix" values="0 0 0 0 0 0 0 0 0 0 0 0 0 0 0 0 0 0 127 0" result="hardAlpha"/>
<feOffset dy="4"/>
<feGaussianBlur stdDeviation="1"/>
<feComposite in2="hardAlpha" operator="out"/>
<feColorMatrix type="matrix" values="0 0 0 0 0 0 0 0 0 0 0 0 0 0 0 0 0 0 0.25 0"/>
<feBlend mode="normal" in2="BackgroundImageFix" result="effect1_dropShadow_1305_482"/>
<feBlend mode="normal" in="SourceGraphic" in2="effect1_dropShadow_1305_482" result="shape"/>
</filter>
</defs>
</svg>
