<svg width="130" height="60" viewBox="0 0 130 60" fill="none" xmlns="http://www.w3.org/2000/svg">
<g filter="url(#filter0_d_52_2622)">
<rect x="4" width="122" height="52" rx="20" fill="#E2649F"/>
</g>
<rect x="6.76532" y="0.625" width="116.469" height="41.8357" rx="19.375" fill="#E883B2" stroke="#EEA2C5" stroke-width="1.25"/>
<rect x="12.4138" width="105.172" height="33.6471" rx="16.8235" fill="#F3C1D9"/>
<g filter="url(#filter1_d_52_2622)">
<path d="M42.2 31H18.2176C16.5686 31 14.9871 30.4284 13.8211 29.4111C12.6551 28.3937 12 27.0138 12 25.575V4.65C12 3.41674 12.5615 2.234 13.5609 1.36195C14.5604 0.489909 15.916 0 17.3294 0H42.2C42.6711 0 43.123 0.163303 43.4561 0.453984C43.7893 0.744666 43.9765 1.13891 43.9765 1.55V29.45C43.9765 29.8611 43.7893 30.2553 43.4561 30.546C43.123 30.8367 42.6711 31 42.2 31ZM40.4235 27.9V23.25H18.2176C17.5109 23.25 16.8331 23.495 16.3334 23.931C15.8337 24.367 15.5529 24.9584 15.5529 25.575C15.5529 26.1916 15.8337 26.783 16.3334 27.219C16.8331 27.655 17.5109 27.9 18.2176 27.9H40.4235Z" fill="#464A5D"/>
<path d="M40.4235 28.025H40.5485V27.9V23.25V23.125H40.4235H18.2176C17.4829 23.125 16.7753 23.3795 16.2512 23.8368C15.7266 24.2945 15.4279 24.9193 15.4279 25.575C15.4279 26.2307 15.7266 26.8555 16.2512 27.3132C16.7753 27.7705 17.4829 28.025 18.2176 28.025H40.4235ZM42.2 30.875H18.2176C16.5967 30.875 15.045 30.313 13.9033 29.3169C12.7621 28.3212 12.125 26.9747 12.125 25.575V4.65C12.125 3.45582 12.6686 2.30648 13.6431 1.45614C14.6182 0.605335 15.944 0.125 17.3294 0.125H42.2C42.6431 0.125 43.0651 0.278729 43.374 0.548172C43.6822 0.817143 43.8515 1.17799 43.8515 1.55V29.45C43.8515 29.822 43.6822 30.1829 43.374 30.4518C43.0651 30.7213 42.6431 30.875 42.2 30.875Z" stroke="#464A5D" stroke-width="0.25"/>
</g>
<path d="M53.02 16.24V14.44H51.2V5.2H53.02V3.38H58.66V5.2H60.5V9H58.46V5.4H53.22V14.24H58.46V10.6H60.5V14.44H58.66V16.24H53.02ZM64.7388 16.24V14.44H62.9188V8.82H64.7388V7H70.3788V8.82H72.2188V14.24H74.0388V16.24H72.0188V14.44H70.3788V16.24H64.7388ZM64.9388 14.24H70.1788V9H64.9388V14.24ZM75.8484 16.24V14.24H83.1084V12.62H77.6684V10.8H75.8484V8.82H77.6684V7H85.1484V9H77.8684V10.6H83.3084V12.42H85.1484V14.44H83.3084V16.24H75.8484ZM88.9966 16.24V14.44H87.1766V8.82H88.9966V7H94.6366V8.82H96.4766V10.8H94.4366V9H89.1966V10.6H92.8366V12.62H89.1966V14.24H94.4366V12.4H96.4766V14.42H94.6366V16.24H88.9966ZM53.02 32.24V30.44H51.2V28.42H53.22V30.24H58.46V26.8H53.02V25H51.2V21.2H53.02V19.38H58.66V21.2H60.5V23.2H58.46V21.4H53.22V24.82H58.66V26.6H60.5V30.44H58.66V32.24H53.02ZM65.738 32.24V30.44H63.938V25H62.118V23H63.938V19.38H65.938V23H71.418V25H65.938V30.24H71.218V28.42H73.238V30.44H71.418V32.24H65.738ZM77.0825 32.24V30.44H75.2625V23H77.2825V30.24H82.5225V23H84.5625V30.44H82.7225V32.24H77.0825ZM88.4106 32.24V30.44H86.5906V24.82H88.4106V23H93.8706V19.38H95.8906V30.44H94.0506V32.24H88.4106ZM88.6106 30.24H93.8506V25H88.6106V30.24ZM99.7388 35.86V34.06H97.9188V32.06H99.9388V33.86H105.199V30.44H99.7388V28.62H97.9188V23H99.9388V28.42H105.199V23H107.219V34.06H105.399V35.86H99.7388Z" fill="black"/>
<defs>
<filter id="filter0_d_52_2622" x="0" y="0" width="130" height="60" filterUnits="userSpaceOnUse" color-interpolation-filters="sRGB">
<feFlood flood-opacity="0" result="BackgroundImageFix"/>
<feColorMatrix in="SourceAlpha" type="matrix" values="0 0 0 0 0 0 0 0 0 0 0 0 0 0 0 0 0 0 127 0" result="hardAlpha"/>
<feOffset dy="4"/>
<feGaussianBlur stdDeviation="2"/>
<feComposite in2="hardAlpha" operator="out"/>
<feColorMatrix type="matrix" values="0 0 0 0 0 0 0 0 0 0 0 0 0 0 0 0 0 0 0.25 0"/>
<feBlend mode="normal" in2="BackgroundImageFix" result="effect1_dropShadow_52_2622"/>
<feBlend mode="normal" in="SourceGraphic" in2="effect1_dropShadow_52_2622" result="shape"/>
</filter>
<filter id="filter1_d_52_2622" x="10" y="0" width="35.9764" height="37" filterUnits="userSpaceOnUse" color-interpolation-filters="sRGB">
<feFlood flood-opacity="0" result="BackgroundImageFix"/>
<feColorMatrix in="SourceAlpha" type="matrix" values="0 0 0 0 0 0 0 0 0 0 0 0 0 0 0 0 0 0 127 0" result="hardAlpha"/>
<feOffset dy="4"/>
<feGaussianBlur stdDeviation="1"/>
<feComposite in2="hardAlpha" operator="out"/>
<feColorMatrix type="matrix" values="0 0 0 0 0 0 0 0 0 0 0 0 0 0 0 0 0 0 0.25 0"/>
<feBlend mode="normal" in2="BackgroundImageFix" result="effect1_dropShadow_52_2622"/>
<feBlend mode="normal" in="SourceGraphic" in2="effect1_dropShadow_52_2622" result="shape"/>
</filter>
</defs>
</svg>
