<svg width="130" height="61" viewBox="0 0 130 61" fill="none" xmlns="http://www.w3.org/2000/svg">
<g filter="url(#filter0_d_52_2520)">
<rect x="4" y="1" width="122" height="52" rx="20" fill="#E2649F"/>
</g>
<rect x="6.76532" y="1.625" width="116.469" height="41.8357" rx="19.375" fill="#E883B2" stroke="#EEA2C5" stroke-width="1.25"/>
<rect x="12.4138" y="1" width="105.172" height="33.6471" rx="16.8235" fill="#F3C1D9"/>
<g filter="url(#filter1_d_52_2520)">
<path d="M49.511 30.219V13.381C49.511 13.0734 49.4462 12.7701 49.3217 12.495C49.1972 12.22 49.0165 11.9807 48.7939 11.7962L36.2449 1.39619C35.9346 1.13902 35.5572 1 35.1693 1C34.7814 1 34.404 1.13902 34.0936 1.39619L21.5447 11.7962C21.322 11.9807 21.1413 12.22 21.0168 12.495C20.8924 12.7701 20.8276 13.0734 20.8276 13.381V30.219C20.8276 30.7444 21.0165 31.2483 21.3526 31.6198C21.6888 31.9913 22.1448 32.2 22.6203 32.2H29.7911C30.2666 32.2 30.7226 31.9913 31.0588 31.6198C31.395 31.2483 31.5838 30.7444 31.5838 30.219V24.2762C31.5838 23.7508 31.7727 23.2469 32.1089 22.8754C32.4451 22.5039 32.9011 22.2952 33.3766 22.2952H36.962C37.4374 22.2952 37.8934 22.5039 38.2296 22.8754C38.5658 23.2469 38.7547 23.7508 38.7547 24.2762V30.219C38.7547 30.7444 38.9436 31.2483 39.2798 31.6198C39.616 31.9913 40.0719 32.2 40.5474 32.2H47.7182C48.1937 32.2 48.6497 31.9913 48.9859 31.6198C49.3221 31.2483 49.511 30.7444 49.511 30.219Z" fill="#464A5D"/>
<path d="M49.511 30.219V13.381C49.511 13.0734 49.4462 12.7701 49.3217 12.495C49.1972 12.22 49.0165 11.9807 48.7939 11.7962L36.2449 1.39619C35.9346 1.13902 35.5572 1 35.1693 1C34.7814 1 34.404 1.13902 34.0936 1.39619L21.5447 11.7962C21.322 11.9807 21.1413 12.22 21.0168 12.495C20.8924 12.7701 20.8276 13.0734 20.8276 13.381V30.219C20.8276 30.7444 21.0165 31.2483 21.3526 31.6198C21.6888 31.9913 22.1448 32.2 22.6203 32.2H29.7911C30.2666 32.2 30.7226 31.9913 31.0588 31.6198C31.395 31.2483 31.5838 30.7444 31.5838 30.219V24.2762C31.5838 23.7508 31.7727 23.2469 32.1089 22.8754C32.4451 22.5039 32.9011 22.2952 33.3766 22.2952H36.962C37.4374 22.2952 37.8934 22.5039 38.2296 22.8754C38.5658 23.2469 38.7547 23.7508 38.7547 24.2762V30.219C38.7547 30.7444 38.9436 31.2483 39.2798 31.6198C39.616 31.9913 40.0719 32.2 40.5474 32.2H47.7182C48.1937 32.2 48.6497 31.9913 48.9859 31.6198C49.3221 31.2483 49.511 30.7444 49.511 30.219Z" stroke="#464A5D" stroke-width="0.25" stroke-linecap="round" stroke-linejoin="round"/>
</g>
<path d="M56.2 29.24V16.38H58.22V21.82H59.82V20H61.86V21.82H63.46V16.38H65.5V29.24H63.46V23.8H58.22V29.24H56.2ZM69.3481 29.24V27.44H67.5281V21.82H69.3481V20H74.9881V21.82H76.8281V27.44H74.9881V29.24H69.3481ZM69.5481 27.24H74.7881V22H69.5481V27.24ZM79.2469 29.24V20H84.9069V21.82H86.5069V20H90.3669V21.82H92.1669V29.24H90.1669V22H86.7069V29.24H84.7069V22H81.2669V29.24H79.2469ZM96.2036 29.24V27.44H94.3836V21.82H96.2036V20H101.844V21.82H103.684V23.8H101.644V22H96.4036V23.6H100.044V25.62H96.4036V27.24H101.644V25.4H103.684V27.42H101.844V29.24H96.2036Z" fill="black"/>
<defs>
<filter id="filter0_d_52_2520" x="0" y="1" width="130" height="60" filterUnits="userSpaceOnUse" color-interpolation-filters="sRGB">
<feFlood flood-opacity="0" result="BackgroundImageFix"/>
<feColorMatrix in="SourceAlpha" type="matrix" values="0 0 0 0 0 0 0 0 0 0 0 0 0 0 0 0 0 0 127 0" result="hardAlpha"/>
<feOffset dy="4"/>
<feGaussianBlur stdDeviation="2"/>
<feComposite in2="hardAlpha" operator="out"/>
<feColorMatrix type="matrix" values="0 0 0 0 0 0 0 0 0 0 0 0 0 0 0 0 0 0 0.25 0"/>
<feBlend mode="normal" in2="BackgroundImageFix" result="effect1_dropShadow_52_2520"/>
<feBlend mode="normal" in="SourceGraphic" in2="effect1_dropShadow_52_2520" result="shape"/>
</filter>
<filter id="filter1_d_52_2520" x="18.7026" y="0.875" width="32.9334" height="37.45" filterUnits="userSpaceOnUse" color-interpolation-filters="sRGB">
<feFlood flood-opacity="0" result="BackgroundImageFix"/>
<feColorMatrix in="SourceAlpha" type="matrix" values="0 0 0 0 0 0 0 0 0 0 0 0 0 0 0 0 0 0 127 0" result="hardAlpha"/>
<feOffset dy="4"/>
<feGaussianBlur stdDeviation="1"/>
<feComposite in2="hardAlpha" operator="out"/>
<feColorMatrix type="matrix" values="0 0 0 0 0 0 0 0 0 0 0 0 0 0 0 0 0 0 0.25 0"/>
<feBlend mode="normal" in2="BackgroundImageFix" result="effect1_dropShadow_52_2520"/>
<feBlend mode="normal" in="SourceGraphic" in2="effect1_dropShadow_52_2520" result="shape"/>
</filter>
</defs>
</svg>
