<svg width="130" height="60" viewBox="0 0 130 60" fill="none" xmlns="http://www.w3.org/2000/svg">
<g filter="url(#filter0_d_52_2571)">
<rect x="4" width="122" height="52" rx="20" fill="#E2649F"/>
</g>
<rect x="6.76532" y="0.625" width="116.469" height="41.8357" rx="19.375" fill="#E883B2" stroke="#EEA2C5" stroke-width="1.25"/>
<rect x="12.4138" width="105.172" height="33.6471" rx="16.8235" fill="#F3C1D9"/>
<g filter="url(#filter1_d_52_2571)">
<path d="M31.8478 10.92H39.1413L31.8478 2.34V10.92ZM22.5652 0H33.1739L41.1304 9.36V28.08C41.1304 28.9075 40.851 29.7011 40.3536 30.2862C39.8562 30.8713 39.1816 31.2 38.4782 31.2H22.5652C21.8618 31.2 21.1872 30.8713 20.6898 30.2862C20.1924 29.7011 19.913 28.9075 19.913 28.08V3.12C19.913 1.3884 21.0932 0 22.5652 0ZM33.1739 28.08V26.52C33.1739 24.4452 29.6332 23.4 27.8695 23.4C26.1059 23.4 22.5652 24.4452 22.5652 26.52V28.08H33.1739ZM27.8695 15.6C27.1661 15.6 26.4916 15.9287 25.9942 16.5138C25.4968 17.0989 25.2174 17.8925 25.2174 18.72C25.2174 19.5475 25.4968 20.3411 25.9942 20.9262C26.4916 21.5113 27.1661 21.84 27.8695 21.84C28.5729 21.84 29.2475 21.5113 29.7449 20.9262C30.2423 20.3411 30.5217 19.5475 30.5217 18.72C30.5217 17.8925 30.2423 17.0989 29.7449 16.5138C29.2475 15.9287 28.5729 15.6 27.8695 15.6Z" fill="#464A5D"/>
<path d="M31.7228 10.92V11.045H31.8478H39.1413H39.4116L39.2365 10.839L31.943 2.25904L31.7228 1.99995V2.34V10.92ZM33.1739 28.205H33.2989V28.08V26.52C33.2989 25.4039 32.3493 24.593 31.2364 24.0689C30.1143 23.5404 28.77 23.275 27.8695 23.275C26.9691 23.275 25.6248 23.5404 24.5027 24.0689C23.3898 24.593 22.4402 25.4039 22.4402 26.52V28.08V28.205H22.5652H33.1739ZM22.5652 0.125H33.1161L41.0054 9.40595V28.08C41.0054 28.8803 40.735 29.6445 40.2584 30.2052C39.7823 30.7653 39.1413 31.075 38.4782 31.075H22.5652C21.9021 31.075 21.2612 30.7653 20.7851 30.2052C20.3084 29.6445 20.038 28.8803 20.038 28.08V3.12C20.038 1.43762 21.1805 0.125 22.5652 0.125ZM27.8695 15.475C27.1258 15.475 26.4176 15.8227 25.8989 16.4329C25.3808 17.0424 25.0924 17.8653 25.0924 18.72C25.0924 19.5747 25.3808 20.3976 25.8989 21.0071C26.4176 21.6173 27.1258 21.965 27.8695 21.965C28.6133 21.965 29.3215 21.6173 29.8402 21.0071C30.3583 20.3976 30.6467 19.5747 30.6467 18.72C30.6467 17.8653 30.3583 17.0424 29.8402 16.4329C29.3215 15.8227 28.6133 15.475 27.8695 15.475Z" stroke="#464A5D" stroke-width="0.25"/>
</g>
<path d="M44.96 24.192V15.36H46.416V13.904H50.928V15.36H52.4V19.84H50.928V21.296H50.224V22.592H51.664V24.192H50.064V22.752H48.592V21.296H46.576V24.192H44.96ZM46.576 19.68H50.768V15.52H46.576V19.68ZM55.791 24.192V22.752H54.335V18.256H55.791V16.8H60.303V18.256H61.775V19.84H60.143V18.4H55.951V19.68H58.863V21.296H55.951V22.592H60.143V21.12H61.775V22.736H60.303V24.192H55.791ZM63.71 24.192V22.592H69.518V21.296H65.166V19.84H63.71V18.256H65.166V16.8H71.15V18.4H65.326V19.68H69.678V21.136H71.15V22.752H69.678V24.192H63.71ZM74.541 24.192V22.752H73.085V16.8H74.701V22.592H78.893V16.8H80.525V22.752H79.053V24.192H74.541ZM82.46 24.192V16.8H86.988V18.256H88.268V16.8H91.356V18.256H92.796V24.192H91.196V18.4H88.428V24.192H86.828V18.4H84.076V24.192H82.46ZM96.0254 24.192V22.752H94.5694V18.256H96.0254V16.8H100.537V18.256H102.009V19.84H100.377V18.4H96.1854V19.68H99.0974V21.296H96.1854V22.592H100.377V21.12H102.009V22.736H100.537V24.192H96.0254Z" fill="black"/>
<defs>
<filter id="filter0_d_52_2571" x="0" y="0" width="130" height="60" filterUnits="userSpaceOnUse" color-interpolation-filters="sRGB">
<feFlood flood-opacity="0" result="BackgroundImageFix"/>
<feColorMatrix in="SourceAlpha" type="matrix" values="0 0 0 0 0 0 0 0 0 0 0 0 0 0 0 0 0 0 127 0" result="hardAlpha"/>
<feOffset dy="4"/>
<feGaussianBlur stdDeviation="2"/>
<feComposite in2="hardAlpha" operator="out"/>
<feColorMatrix type="matrix" values="0 0 0 0 0 0 0 0 0 0 0 0 0 0 0 0 0 0 0.25 0"/>
<feBlend mode="normal" in2="BackgroundImageFix" result="effect1_dropShadow_52_2571"/>
<feBlend mode="normal" in="SourceGraphic" in2="effect1_dropShadow_52_2571" result="shape"/>
</filter>
<filter id="filter1_d_52_2571" x="17.913" y="0" width="25.2174" height="37.2" filterUnits="userSpaceOnUse" color-interpolation-filters="sRGB">
<feFlood flood-opacity="0" result="BackgroundImageFix"/>
<feColorMatrix in="SourceAlpha" type="matrix" values="0 0 0 0 0 0 0 0 0 0 0 0 0 0 0 0 0 0 127 0" result="hardAlpha"/>
<feOffset dy="4"/>
<feGaussianBlur stdDeviation="1"/>
<feComposite in2="hardAlpha" operator="out"/>
<feColorMatrix type="matrix" values="0 0 0 0 0 0 0 0 0 0 0 0 0 0 0 0 0 0 0.25 0"/>
<feBlend mode="normal" in2="BackgroundImageFix" result="effect1_dropShadow_52_2571"/>
<feBlend mode="normal" in="SourceGraphic" in2="effect1_dropShadow_52_2571" result="shape"/>
</filter>
</defs>
</svg>
