<svg width="27" height="38" viewBox="0 0 27 38" fill="none" xmlns="http://www.w3.org/2000/svg">
<g filter="url(#filter0_d_1305_664)">
<path d="M14.8479 10.92H22.1413L14.8479 2.34V10.92ZM5.56526 0H16.174L24.1305 9.36V28.08C24.1305 28.9075 23.8511 29.7011 23.3537 30.2862C22.8563 30.8713 22.1817 31.2 21.4783 31.2H5.56526C4.86186 31.2 4.18727 30.8713 3.68989 30.2862C3.19251 29.7011 2.91309 28.9075 2.91309 28.08V3.12C2.91309 1.3884 4.0933 0 5.56526 0ZM16.174 28.08V26.52C16.174 24.4452 12.6333 23.4 10.8696 23.4C9.10591 23.4 5.56526 24.4452 5.56526 26.52V28.08H16.174ZM10.8696 15.6C10.1662 15.6 9.49162 15.9287 8.99424 16.5138C8.49686 17.0989 8.21743 17.8925 8.21743 18.72C8.21743 19.5475 8.49686 20.3411 8.99424 20.9262C9.49162 21.5113 10.1662 21.84 10.8696 21.84C11.573 21.84 12.2476 21.5113 12.745 20.9262C13.2424 20.3411 13.5218 19.5475 13.5218 18.72C13.5218 17.8925 13.2424 17.0989 12.745 16.5138C12.2476 15.9287 11.573 15.6 10.8696 15.6Z" fill="#464A5D"/>
<path d="M14.7229 10.92V11.045H14.8479H22.1413H22.4117L22.2366 10.839L14.9431 2.25904L14.7229 1.99995V2.34V10.92ZM16.174 28.205H16.299V28.08V26.52C16.299 25.4039 15.3494 24.593 14.2364 24.0689C13.1143 23.5404 11.7701 23.275 10.8696 23.275C9.96916 23.275 8.6249 23.5404 7.50279 24.0689C6.38982 24.593 5.44026 25.4039 5.44026 26.52V28.08V28.205H5.56526H16.174ZM5.56526 0.125H16.1162L24.0055 9.40595V28.08C24.0055 28.8803 23.7351 29.6445 23.2584 30.2052C22.7823 30.7653 22.1414 31.075 21.4783 31.075H5.56526C4.90217 31.075 4.26122 30.7653 3.78513 30.2052C3.30851 29.6445 3.03809 28.8803 3.03809 28.08V3.12C3.03809 1.43762 4.18061 0.125 5.56526 0.125ZM10.8696 15.475C10.1259 15.475 9.41766 15.8227 8.899 16.4329C8.38086 17.0424 8.09243 17.8653 8.09243 18.72C8.09243 19.5747 8.38086 20.3976 8.899 21.0071C9.41766 21.6173 10.1259 21.965 10.8696 21.965C11.6133 21.965 12.3216 21.6173 12.8402 21.0071C13.3584 20.3976 13.6468 19.5747 13.6468 18.72C13.6468 17.8653 13.3584 17.0424 12.8402 16.4329C12.3216 15.8227 11.6133 15.475 10.8696 15.475Z" stroke="#464A5D" stroke-width="0.25"/>
</g>
<defs>
<filter id="filter0_d_1305_664" x="0.913086" y="0" width="25.2174" height="37.2" filterUnits="userSpaceOnUse" color-interpolation-filters="sRGB">
<feFlood flood-opacity="0" result="BackgroundImageFix"/>
<feColorMatrix in="SourceAlpha" type="matrix" values="0 0 0 0 0 0 0 0 0 0 0 0 0 0 0 0 0 0 127 0" result="hardAlpha"/>
<feOffset dy="4"/>
<feGaussianBlur stdDeviation="1"/>
<feComposite in2="hardAlpha" operator="out"/>
<feColorMatrix type="matrix" values="0 0 0 0 0 0 0 0 0 0 0 0 0 0 0 0 0 0 0.25 0"/>
<feBlend mode="normal" in2="BackgroundImageFix" result="effect1_dropShadow_1305_664"/>
<feBlend mode="normal" in="SourceGraphic" in2="effect1_dropShadow_1305_664" result="shape"/>
</filter>
</defs>
</svg>
